<?xml version="1.0" encoding="UTF-8" standalone="no"?>
<!DOCTYPE svg PUBLIC "-//W3C//DTD SVG 1.1//EN" "http://www.w3.org/Graphics/SVG/1.1/DTD/svg11.dtd">
<svg version="1.1" xmlns="http://www.w3.org/2000/svg" xmlns:xlink="http://www.w3.org/1999/xlink" preserveAspectRatio="xMidYMid meet" viewBox="180.17376294591472 298.3939393939394 462.82623705408525 54.57153816647491" width="458.83" height="50.57"><defs><path d="M211.61 338.92L211.61 348.86L181.17 348.86L181.17 299.39L210.88 299.39L210.88 309.34L191.85 309.34L191.85 319.16L209.04 319.16L209.04 328.73L191.85 328.73L191.85 338.92L211.61 338.92Z" id="bh9idvRhp"></path><path d="M238.99 310.56L242.42 310.56L242.42 320.26C239.77 320.26 238.3 320.26 238.01 320.26C235.06 320.26 232.97 321 231.75 322.35C230.52 323.7 229.9 325.91 229.9 329.1C229.9 330.42 229.9 337.05 229.9 348.98L219.59 348.98L219.59 310.69L226.22 310.69C227.33 313.49 227.94 315.04 228.06 315.35C230.64 312.16 234.32 310.56 238.99 310.56" id="d3ZKQT8D77"></path><path d="M286.24 310.69L286.24 348.86L278.14 348.86C277.63 346.8 277.34 345.65 277.28 345.42C273.85 348.49 269.67 349.97 264.89 349.97C261.08 349.97 257.64 349.11 254.7 347.39C251.63 345.67 249.3 343.21 247.58 340.15C245.86 337.08 245 333.64 245 329.84C245 326.03 245.86 322.59 247.58 319.52C249.3 316.46 251.75 314 254.7 312.28C257.77 310.56 261.2 309.7 264.89 309.7C269.8 309.7 273.97 311.3 277.41 314.37C277.48 314.12 277.85 312.9 278.51 310.69L286.24 310.69ZM258.26 337.2C260.22 339.16 262.68 340.15 265.75 340.15C268.69 340.15 271.27 339.16 273.23 337.2C275.2 335.24 276.18 332.78 276.18 329.71C276.18 326.64 275.2 324.19 273.23 322.22C271.27 320.26 268.81 319.28 265.75 319.28C262.8 319.28 260.22 320.26 258.26 322.22C256.29 324.19 255.31 326.64 255.31 329.71C255.31 332.78 256.29 335.24 258.26 337.2" id="a4eWxoNFK"></path><path d="M309.69 349.97C304.9 349.97 301.1 348.74 298.15 346.28C295.21 343.83 293.73 340.51 293.73 336.34C294.74 336.34 302.79 336.34 303.8 336.34C303.8 337.94 304.41 339.29 305.52 340.15C306.62 341 308.22 341.5 310.18 341.5C311.65 341.5 313 341.13 313.99 340.51C315.09 339.9 315.58 338.92 315.58 337.69C315.58 337.08 315.46 336.59 315.09 336.1C314.72 335.6 314.23 335.24 313.37 334.99C312.64 334.62 311.9 334.38 311.16 334.25C310.43 334.13 309.44 333.89 308.22 333.64C307.11 333.52 306.25 333.27 305.52 333.15C304.78 333.03 303.92 332.78 302.82 332.54C301.71 332.29 300.85 331.92 300.12 331.55C299.38 331.19 298.64 330.69 297.91 330.08C297.17 329.47 296.43 328.85 296.06 328.12C295.57 327.38 295.21 326.52 294.84 325.42C294.47 324.43 294.35 323.21 294.35 321.98C294.35 318.42 295.82 315.47 298.64 313.14C301.47 310.93 305.15 309.7 309.69 309.7C314.23 309.7 318.04 310.93 320.74 313.26C323.56 315.6 324.91 318.67 324.91 322.47C323.93 322.47 316.07 322.47 315.09 322.47C315.09 321 314.6 319.89 313.49 319.03C312.51 318.3 311.04 317.93 309.32 317.93C307.73 317.93 306.5 318.3 305.64 318.91C304.78 319.52 304.29 320.51 304.29 321.61C304.29 321.98 304.41 322.35 304.53 322.72C304.66 323.08 304.9 323.33 305.27 323.57C305.64 323.82 306.01 324.07 306.38 324.19C306.74 324.31 307.23 324.56 307.85 324.68C308.58 324.8 309.08 324.93 309.44 325.05C309.81 325.17 310.55 325.29 311.41 325.42C315.09 326.03 317.79 326.77 319.39 327.5C323.56 329.34 325.52 332.54 325.52 337.2C325.52 341.13 324.05 344.2 321.1 346.53C318.4 348.86 314.48 349.97 309.69 349.97" id="i937n19UQ"></path><path d="M362.22 301.24C365.29 302.46 367.99 304.18 370.2 306.39C372.41 308.6 374.13 311.18 375.36 314.25C376.59 317.31 377.2 320.63 377.2 324.07C377.2 327.63 376.59 330.94 375.36 334.01C374.13 337.08 372.41 339.65 370.2 341.86C367.99 344.07 365.29 345.79 362.22 347.02C359.16 348.25 355.72 348.86 352.16 348.86C350.92 348.86 344.7 348.86 333.5 348.86L333.5 299.39L352.16 299.39C356.82 299.8 360.18 300.42 362.22 301.24ZM351.91 338.92C356.09 338.92 359.65 337.57 362.22 334.74C364.93 331.92 366.28 328.36 366.28 324.07C366.28 319.77 364.93 316.21 362.22 313.39C359.52 310.69 356.09 309.21 351.91 309.21C351.4 309.21 348.82 309.21 344.18 309.21L344.18 338.8L351.91 338.8C351.91 338.86 351.91 338.9 351.91 338.92Z" id="a2gZXmMT1"></path><path d="M423.97 310.69L423.97 348.86L415.86 348.86C415.35 346.8 415.06 345.65 415.01 345.42C411.57 348.49 407.4 349.97 402.61 349.97C398.8 349.97 395.37 349.11 392.42 347.39C389.35 345.67 387.02 343.21 385.3 340.15C383.58 337.08 382.72 333.64 382.72 329.84C382.72 326.03 383.58 322.59 385.3 319.52C387.02 316.46 389.47 314 392.42 312.28C395.49 310.56 398.93 309.7 402.61 309.7C407.52 309.7 411.69 311.3 415.13 314.37C415.2 314.12 415.57 312.9 416.23 310.69L423.97 310.69ZM395.98 337.2C397.94 339.16 400.4 340.15 403.47 340.15C406.41 340.15 408.99 339.16 410.96 337.2C412.92 335.24 413.9 332.78 413.9 329.71C413.9 326.64 412.92 324.19 410.96 322.22C408.99 320.26 406.54 319.28 403.47 319.28C400.52 319.28 397.94 320.26 395.98 322.22C394.02 324.19 393.03 326.64 393.03 329.71C393.03 332.78 394.02 335.24 395.98 337.2" id="b1J7UXKQtW"></path><path d="M452.57 339.78L457.23 339.78L457.23 348.98C452.81 348.98 450.36 348.98 449.87 348.98C445.69 348.98 442.38 347.76 439.92 345.3C437.47 342.85 436.24 339.53 436.24 335.36C436.24 334.27 436.24 328.83 436.24 319.03L429.37 319.03L429.37 316.82L444.46 300.74L446.43 300.74L446.43 310.69L456.99 310.69L456.99 319.03L446.67 319.03C446.67 327.94 446.67 332.9 446.67 333.89C446.67 335.73 447.17 337.2 448.15 338.18C449.13 339.16 450.6 339.78 452.57 339.78" id="b1ZA2oP4Pe"></path><path d="M502.77 310.69L502.77 348.86L494.67 348.86C494.15 346.8 493.87 345.65 493.81 345.42C490.37 348.49 486.2 349.97 481.41 349.97C477.61 349.97 474.17 349.11 471.22 347.39C468.15 345.67 465.82 343.21 464.1 340.15C462.39 337.08 461.53 333.64 461.53 329.84C461.53 326.03 462.39 322.59 464.1 319.52C465.82 316.46 468.28 314 471.22 312.28C474.29 310.56 477.73 309.7 481.41 309.7C486.32 309.7 490.49 311.3 493.93 314.37C494.01 314.12 494.37 312.9 495.04 310.69L502.77 310.69ZM474.78 337.2C476.75 339.16 479.2 340.15 482.27 340.15C485.22 340.15 487.79 339.16 489.76 337.2C491.72 335.24 492.7 332.78 492.7 329.71C492.7 326.64 491.72 324.19 489.76 322.22C487.79 320.26 485.34 319.28 482.27 319.28C479.32 319.28 476.75 320.26 474.78 322.22C472.82 324.19 471.84 326.64 471.84 329.71C471.84 332.78 472.82 335.24 474.78 337.2" id="f1O5S3x3EM"></path><path d="M558.13 301.6C560.83 303.08 562.92 305.04 564.39 307.74C565.86 310.32 566.72 313.26 566.72 316.46C566.72 321.37 565 325.42 561.69 328.61C558.37 331.8 554.2 333.39 549.29 333.39C548.73 333.39 545.95 333.39 540.94 333.39L540.94 348.86L530.26 348.86L530.26 299.39L549.29 299.39C553.46 299.88 556.41 300.62 558.13 301.6ZM553.95 321.61C555.3 320.26 555.92 318.54 555.92 316.46C555.92 314.37 555.3 312.65 553.95 311.42C552.6 310.07 551.01 309.46 548.8 309.46C548.28 309.46 545.66 309.46 540.94 309.46L540.94 323.57L548.8 323.57C551.34 323.17 553.05 322.51 553.95 321.61Z" id="c12DGOGBrG"></path><path d="M592.87 310.56L596.3 310.56L596.3 320.26C593.65 320.26 592.18 320.26 591.88 320.26C588.94 320.26 586.85 321 585.62 322.35C584.4 323.7 583.78 325.91 583.78 329.1C583.78 330.42 583.78 337.05 583.78 348.98L573.47 348.98L573.47 310.69L580.1 310.69C581.2 313.49 581.82 315.04 581.94 315.35C584.52 312.16 588.2 310.56 592.87 310.56" id="b1gvPfQBi4"></path><path d="M619.38 349.97C615.45 349.97 612.01 349.11 608.82 347.39C605.63 345.67 603.18 343.21 601.46 340.15C599.62 337.08 598.76 333.64 598.76 329.84C598.76 326.03 599.62 322.59 601.46 319.52C603.3 316.46 605.75 314 608.82 312.28C612.01 310.56 615.45 309.7 619.38 309.7C623.18 309.7 626.74 310.56 629.93 312.28C633.13 314 635.58 316.46 637.3 319.52C639.14 322.59 640 326.03 640 329.84C640 333.64 639.14 337.08 637.3 340.15C635.46 343.21 633 345.67 629.93 347.39C626.74 349.11 623.31 349.97 619.38 349.97M612.14 337.32C614.1 339.29 616.43 340.27 619.5 340.27C622.45 340.27 624.9 339.29 626.87 337.32C628.83 335.36 629.69 332.9 629.69 329.84C629.69 326.77 628.71 324.19 626.87 322.35C624.9 320.38 622.57 319.4 619.5 319.4C616.56 319.4 614.1 320.38 612.14 322.35C610.17 324.31 609.31 326.77 609.31 329.84C609.19 332.9 610.17 335.36 612.14 337.32" id="acvFkm9v2"></path></defs><g><g><use xlink:href="#bh9idvRhp" opacity="1" fill="#ffffff" fill-opacity="1"></use><g><use xlink:href="#bh9idvRhp" opacity="1" fill-opacity="0" stroke="#000000" stroke-width="1" stroke-opacity="0"></use></g></g><g><use xlink:href="#d3ZKQT8D77" opacity="1" fill="#ffffff" fill-opacity="1"></use><g><use xlink:href="#d3ZKQT8D77" opacity="1" fill-opacity="0" stroke="#000000" stroke-width="1" stroke-opacity="0"></use></g></g><g><use xlink:href="#a4eWxoNFK" opacity="1" fill="#ffffff" fill-opacity="1"></use><g><use xlink:href="#a4eWxoNFK" opacity="1" fill-opacity="0" stroke="#000000" stroke-width="1" stroke-opacity="0"></use></g></g><g><use xlink:href="#i937n19UQ" opacity="1" fill="#ffffff" fill-opacity="1"></use><g><use xlink:href="#i937n19UQ" opacity="1" fill-opacity="0" stroke="#000000" stroke-width="1" stroke-opacity="0"></use></g></g><g><use xlink:href="#a2gZXmMT1" opacity="1" fill="#ffffff" fill-opacity="1"></use><g><use xlink:href="#a2gZXmMT1" opacity="1" fill-opacity="0" stroke="#000000" stroke-width="1" stroke-opacity="0"></use></g></g><g><use xlink:href="#b1J7UXKQtW" opacity="1" fill="#ffffff" fill-opacity="1"></use><g><use xlink:href="#b1J7UXKQtW" opacity="1" fill-opacity="0" stroke="#000000" stroke-width="1" stroke-opacity="0"></use></g></g><g><use xlink:href="#b1ZA2oP4Pe" opacity="1" fill="#ffffff" fill-opacity="1"></use><g><use xlink:href="#b1ZA2oP4Pe" opacity="1" fill-opacity="0" stroke="#000000" stroke-width="1" stroke-opacity="0"></use></g></g><g><use xlink:href="#f1O5S3x3EM" opacity="1" fill="#ffffff" fill-opacity="1"></use><g><use xlink:href="#f1O5S3x3EM" opacity="1" fill-opacity="0" stroke="#000000" stroke-width="1" stroke-opacity="0"></use></g></g><g><use xlink:href="#c12DGOGBrG" opacity="1" fill="#ffffff" fill-opacity="1"></use><g><use xlink:href="#c12DGOGBrG" opacity="1" fill-opacity="0" stroke="#000000" stroke-width="1" stroke-opacity="0"></use></g></g><g><use xlink:href="#b1gvPfQBi4" opacity="1" fill="#ffffff" fill-opacity="1"></use><g><use xlink:href="#b1gvPfQBi4" opacity="1" fill-opacity="0" stroke="#000000" stroke-width="1" stroke-opacity="0"></use></g></g><g><use xlink:href="#acvFkm9v2" opacity="1" fill="#ffffff" fill-opacity="1"></use><g><use xlink:href="#acvFkm9v2" opacity="1" fill-opacity="0" stroke="#000000" stroke-width="1" stroke-opacity="0"></use></g></g></g></svg>