<?xml version="1.0" encoding="utf-8"?>
<!-- Generator: Adobe Illustrator 22.0.0, SVG Export Plug-In . SVG Version: 6.00 Build 0)  -->
<svg version="1.1" id="Layer_1" xmlns="http://www.w3.org/2000/svg" xmlns:xlink="http://www.w3.org/1999/xlink" x="0px" y="0px"
	 viewBox="0 0 98.8 127.9" style="enable-background:new 0 0 98.8 127.9;" xml:space="preserve">
<style type="text/css">
	.st0{fill:#EF8F2F;}
	.st1{fill:#FFFFFF;}
	.st2{fill:#E24766;}
	.st3{fill:#35774C;}
</style>
<g>
	<path class="st0" d="M0,49.4c0,6.2,2.6,13.8,6.6,21.7l12.5-60.7C7.5,19.5,0,33.5,0,49.4"/>
	<path class="st1" d="M80,88.3c-5.7,3.7-12.5,5.8-19.7,5.8c-2.5,0-5-0.3-7.5-0.8l-0.2,0l-0.1,0l-3,14.5l0.2,0l-3.7,17.2
		c0.8,0.8,1.4,1.5,1.9,2.1c0.8,0.9,2.2,0.9,3,0c1.2-1.3,14.9-16.7,20.4-24.3c2.6-3.4,5.2-6.9,7.8-10.5L80,88.3z"/>
	
		<rect x="28.7" y="24.9" transform="matrix(0.2022 -0.9793 0.9793 0.2022 -6.5589 68.2886)" class="st0" width="19.8" height="26.5"/>
	<path class="st2" d="M60.3,82.6c11.7,0,22.3-8.2,24.7-20.2c2.8-13.7-6-27.1-19.7-29.9l-0.2,0L54.9,82.1l0.2,0
		C56.9,82.5,58.6,82.6,60.3,82.6"/>
	
		<rect x="22.8" y="55.3" transform="matrix(0.2021 -0.9794 0.9794 0.2021 -41.2667 86.3652)" class="st0" width="19.2" height="26.5"/>
	<path class="st3" d="M67.5,21.3l0.2,0c17.9,3.7,30.1,20,29.3,37.7l0.2,0c1.1-3.5,1.6-6.8,1.6-9.7c0-19.6-11.5-36.5-28-44.5
		L67.5,21.3L67.5,21.3z"/>
	<path class="st3" d="M55.9,19.9l3.9-18.8C56.4,0.4,53,0,49.4,0c-6,0-11.7,1.1-17,3.1L30,14.5L55.9,19.9z"/>
	<path class="st1" d="M15.7,86.6c6.7,10.2,14.4,20,20.8,27.6l4.6-22.3L15.7,86.6z"/>
</g>
</svg>
